<svg xmlns="http://www.w3.org/2000/svg" xmlns:xlink="http://www.w3.org/1999/xlink" width="500" zoomAndPan="magnify" viewBox="0 0 375 374.999991" height="500" preserveAspectRatio="xMidYMid meet" version="1.0"><defs><g/><clipPath id="bd1fdccdde"><path d="M 88 163 L 123.6875 163 L 123.6875 219.546875 L 88 219.546875 Z M 88 163 " clip-rule="nonzero"/></clipPath><clipPath id="f207e8b77f"><path d="M 71.1875 155.796875 L 107 155.796875 L 107 213 L 71.1875 213 Z M 71.1875 155.796875 " clip-rule="nonzero"/></clipPath></defs><rect x="-37.5" width="450" fill="#ffffff" y="-37.499999" height="449.999989" fill-opacity="1"/><rect x="-37.5" width="450" fill="#ffffff" y="-37.499999" height="449.999989" fill-opacity="1"/><rect x="-37.5" width="450" fill="#ffffff" y="-37.499999" height="449.999989" fill-opacity="1"/><g clip-path="url(#bd1fdccdde)"><path fill="#e87a00" d="M 114.4375 201.960938 L 88.6875 187.046875 L 88.6875 199.265625 L 123.683594 219.535156 L 123.683594 163.085938 L 114.4375 163.085938 L 114.4375 201.960938 " fill-opacity="1" fill-rule="nonzero"/></g><g clip-path="url(#f207e8b77f)"><path fill="#001f3d" d="M 71.191406 155.789062 L 71.191406 212.242188 L 80.4375 212.242188 L 80.4375 173.363281 L 106.183594 188.277344 L 106.183594 176.0625 L 71.191406 155.789062 " fill-opacity="1" fill-rule="nonzero"/></g><g fill="#001f3d" fill-opacity="1"><g transform="translate(128.487066, 202.359304)"><g><path d="M 4.734375 -44.03125 L 42.8125 -44.03125 L 42.8125 -33.46875 L 18.875 -33.46875 L 18.875 -27.390625 L 39.359375 -27.390625 L 39.359375 -17.28125 L 18.875 -17.28125 L 18.875 -10.5625 L 43.265625 -10.5625 L 43.265625 0 L 4.734375 0 Z M 4.734375 -44.03125 "/></g></g></g><g fill="#001f3d" fill-opacity="1"><g transform="translate(174.692229, 202.359304)"><g><path d="M 30.078125 -32.765625 L 30.078125 0 L 15.9375 0 L 15.9375 -32.765625 L 1.46875 -32.765625 L 1.46875 -44.03125 L 44.484375 -44.03125 L 44.484375 -32.765625 Z M 30.078125 -32.765625 "/></g></g></g><g fill="#001f3d" fill-opacity="1"><g transform="translate(220.897392, 202.359304)"><g><path d="M 21.703125 -44.796875 C 25.191406 -44.796875 28.226562 -44.257812 30.8125 -43.1875 C 33.394531 -42.125 35.359375 -40.6875 36.703125 -38.875 C 38.046875 -37.0625 38.71875 -35.046875 38.71875 -32.828125 C 38.71875 -30.609375 38.117188 -28.613281 36.921875 -26.84375 C 35.734375 -25.070312 34.195312 -23.828125 32.3125 -23.109375 L 32.3125 -22.84375 C 34.75 -22.082031 36.640625 -20.75 37.984375 -18.84375 C 39.328125 -16.945312 40 -14.65625 40 -11.96875 C 39.832031 -8.21875 38.203125 -5.15625 35.109375 -2.78125 C 32.015625 -0.414062 27.457031 0.765625 21.4375 0.765625 C 17.300781 0.765625 13.820312 0.210938 11 -0.890625 C 8.1875 -2.003906 6.097656 -3.519531 4.734375 -5.4375 C 3.367188 -7.351562 2.6875 -9.507812 2.6875 -11.90625 L 2.6875 -13.25 L 13.953125 -13.25 C 13.953125 -9.75 16.171875 -8 20.609375 -8 C 25.046875 -8 27.265625 -9.960938 27.265625 -13.890625 C 27.265625 -15.378906 26.847656 -16.519531 26.015625 -17.3125 C 25.179688 -18.101562 24.101562 -18.5 22.78125 -18.5 L 18.109375 -18.5 L 18.109375 -26.375 L 21.765625 -26.375 C 23.085938 -26.375 24.160156 -26.765625 24.984375 -27.546875 C 25.816406 -28.335938 26.234375 -29.476562 26.234375 -30.96875 C 26.234375 -32.382812 25.734375 -33.582031 24.734375 -34.5625 C 23.734375 -35.539062 22.359375 -36.03125 20.609375 -36.03125 C 18.773438 -36.03125 17.34375 -35.5625 16.3125 -34.625 C 15.289062 -33.6875 14.78125 -32.535156 14.78125 -31.171875 L 4.09375 -31.171875 L 4.09375 -32.765625 C 4.09375 -34.984375 4.785156 -37.007812 6.171875 -38.84375 C 7.554688 -40.675781 9.582031 -42.125 12.25 -43.1875 C 14.914062 -44.257812 18.066406 -44.796875 21.703125 -44.796875 Z M 21.703125 -44.796875 "/></g></g></g><g fill="#001f3d" fill-opacity="1"><g transform="translate(135.200796, 217.111889)"><g><path d="M 6.171875 0 L 4.828125 0 L 4.34375 -1.484375 L 1.890625 -1.484375 L 1.40625 0 L 0.09375 0 L 2.3125 -6.421875 L 3.953125 -6.421875 Z M 3.046875 -5.078125 L 2.234375 -2.546875 L 4 -2.546875 L 3.171875 -5.078125 Z M 3.046875 -5.078125 "/></g></g><g transform="translate(141.463003, 217.111889)"><g><path d="M 3.3125 -6.421875 C 3.78125 -6.421875 4.175781 -6.335938 4.5 -6.171875 C 4.820312 -6.003906 5.066406 -5.769531 5.234375 -5.46875 C 5.398438 -5.164062 5.484375 -4.8125 5.484375 -4.40625 C 5.484375 -4.007812 5.398438 -3.660156 5.234375 -3.359375 C 5.066406 -3.054688 4.820312 -2.816406 4.5 -2.640625 C 4.175781 -2.472656 3.78125 -2.390625 3.3125 -2.390625 L 2.109375 -2.390625 L 2.109375 0 L 0.828125 0 L 0.828125 -6.421875 Z M 3.15625 -3.40625 C 3.851562 -3.40625 4.203125 -3.738281 4.203125 -4.40625 C 4.203125 -5.082031 3.851562 -5.421875 3.15625 -5.421875 L 2.109375 -5.421875 L 2.109375 -3.40625 Z M 3.15625 -3.40625 "/></g></g><g transform="translate(147.334096, 217.111889)"><g><path d="M 2.109375 -6.421875 L 2.109375 -1.0625 L 5 -1.0625 L 5 0 L 0.828125 0 L 0.828125 -6.421875 Z M 2.109375 -6.421875 "/></g></g><g transform="translate(152.537221, 217.111889)"><g><path d="M 2.109375 0 L 0.828125 0 L 0.828125 -6.421875 L 2.109375 -6.421875 Z M 2.109375 0 "/></g></g><g transform="translate(155.481557, 217.111889)"><g><path d="M 3.515625 0.09375 C 2.921875 0.09375 2.394531 -0.0234375 1.9375 -0.265625 C 1.488281 -0.515625 1.132812 -0.882812 0.875 -1.375 C 0.625 -1.875 0.5 -2.488281 0.5 -3.21875 C 0.5 -3.9375 0.625 -4.539062 0.875 -5.03125 C 1.132812 -5.53125 1.488281 -5.898438 1.9375 -6.140625 C 2.394531 -6.390625 2.921875 -6.515625 3.515625 -6.515625 C 4.128906 -6.515625 4.648438 -6.394531 5.078125 -6.15625 C 5.515625 -5.914062 5.828125 -5.546875 6.015625 -5.046875 L 5.078125 -4.484375 L 4.96875 -4.484375 C 4.832031 -4.816406 4.644531 -5.054688 4.40625 -5.203125 C 4.175781 -5.347656 3.878906 -5.421875 3.515625 -5.421875 C 2.984375 -5.421875 2.566406 -5.242188 2.265625 -4.890625 C 1.960938 -4.535156 1.8125 -3.976562 1.8125 -3.21875 C 1.8125 -2.445312 1.960938 -1.882812 2.265625 -1.53125 C 2.566406 -1.175781 2.984375 -1 3.515625 -1 C 4.347656 -1 4.859375 -1.40625 5.046875 -2.21875 L 5.15625 -2.21875 L 6.09375 -1.734375 C 5.914062 -1.128906 5.613281 -0.671875 5.1875 -0.359375 C 4.757812 -0.0546875 4.203125 0.09375 3.515625 0.09375 Z M 3.515625 0.09375 "/></g></g><g transform="translate(161.783314, 217.111889)"><g><path d="M 6.171875 0 L 4.828125 0 L 4.34375 -1.484375 L 1.890625 -1.484375 L 1.40625 0 L 0.09375 0 L 2.3125 -6.421875 L 3.953125 -6.421875 Z M 3.046875 -5.078125 L 2.234375 -2.546875 L 4 -2.546875 L 3.171875 -5.078125 Z M 3.046875 -5.078125 "/></g></g><g transform="translate(168.045521, 217.111889)"><g><path d="M 5.15625 -6.421875 L 5.15625 -5.359375 L 3.296875 -5.359375 L 3.296875 0 L 2.03125 0 L 2.03125 -5.359375 L 0.171875 -5.359375 L 0.171875 -6.421875 Z M 5.15625 -6.421875 "/></g></g><g transform="translate(173.371692, 217.111889)"><g><path d="M 2.109375 0 L 0.828125 0 L 0.828125 -6.421875 L 2.109375 -6.421875 Z M 2.109375 0 "/></g></g><g transform="translate(176.316028, 217.111889)"><g><path d="M 3.8125 0 L 2.28125 0 L 0.109375 -6.421875 L 1.46875 -6.421875 L 3.03125 -1.640625 L 3.140625 -1.640625 L 4.671875 -6.421875 L 5.984375 -6.421875 Z M 3.8125 0 "/></g></g><g transform="translate(182.415637, 217.111889)"><g><path d="M 3.5 0.09375 C 2.914062 0.09375 2.394531 -0.0234375 1.9375 -0.265625 C 1.488281 -0.503906 1.132812 -0.867188 0.875 -1.359375 C 0.625 -1.859375 0.5 -2.476562 0.5 -3.21875 C 0.5 -3.945312 0.625 -4.554688 0.875 -5.046875 C 1.132812 -5.546875 1.488281 -5.914062 1.9375 -6.15625 C 2.394531 -6.394531 2.914062 -6.515625 3.5 -6.515625 C 4.09375 -6.515625 4.613281 -6.394531 5.0625 -6.15625 C 5.507812 -5.914062 5.859375 -5.546875 6.109375 -5.046875 C 6.359375 -4.554688 6.484375 -3.945312 6.484375 -3.21875 C 6.484375 -2.476562 6.359375 -1.859375 6.109375 -1.359375 C 5.859375 -0.867188 5.507812 -0.503906 5.0625 -0.265625 C 4.613281 -0.0234375 4.09375 0.09375 3.5 0.09375 Z M 3.5 -1.015625 C 4.039062 -1.015625 4.457031 -1.1875 4.75 -1.53125 C 5.039062 -1.882812 5.1875 -2.445312 5.1875 -3.21875 C 5.1875 -3.976562 5.039062 -4.535156 4.75 -4.890625 C 4.457031 -5.242188 4.039062 -5.421875 3.5 -5.421875 C 2.957031 -5.421875 2.539062 -5.242188 2.25 -4.890625 C 1.957031 -4.535156 1.8125 -3.976562 1.8125 -3.21875 C 1.8125 -2.445312 1.957031 -1.882812 2.25 -1.53125 C 2.539062 -1.1875 2.957031 -1.015625 3.5 -1.015625 Z M 3.5 -1.015625 "/></g></g><g transform="translate(189.416125, 217.111889)"><g><path d="M 2.84375 0.09375 C 2.40625 0.09375 2.007812 0.0390625 1.65625 -0.0625 C 1.3125 -0.175781 1.019531 -0.320312 0.78125 -0.5 C 0.550781 -0.6875 0.378906 -0.882812 0.265625 -1.09375 L 0.953125 -1.953125 L 1.0625 -1.953125 C 1.257812 -1.660156 1.503906 -1.425781 1.796875 -1.25 C 2.097656 -1.082031 2.445312 -1 2.84375 -1 C 3.1875 -1 3.441406 -1.070312 3.609375 -1.21875 C 3.785156 -1.363281 3.875 -1.5625 3.875 -1.8125 C 3.875 -1.96875 3.84375 -2.09375 3.78125 -2.1875 C 3.726562 -2.289062 3.640625 -2.378906 3.515625 -2.453125 C 3.390625 -2.535156 3.21875 -2.601562 3 -2.65625 L 2.171875 -2.84375 C 1.585938 -2.96875 1.15625 -3.179688 0.875 -3.484375 C 0.59375 -3.796875 0.453125 -4.195312 0.453125 -4.6875 C 0.453125 -5.050781 0.539062 -5.367188 0.71875 -5.640625 C 0.90625 -5.921875 1.171875 -6.132812 1.515625 -6.28125 C 1.867188 -6.4375 2.285156 -6.515625 2.765625 -6.515625 C 3.253906 -6.515625 3.675781 -6.445312 4.03125 -6.3125 C 4.382812 -6.1875 4.6875 -5.988281 4.9375 -5.71875 L 4.296875 -4.859375 L 4.1875 -4.859375 C 4.007812 -5.046875 3.800781 -5.1875 3.5625 -5.28125 C 3.332031 -5.382812 3.066406 -5.4375 2.765625 -5.4375 C 2.410156 -5.4375 2.144531 -5.375 1.96875 -5.25 C 1.789062 -5.125 1.703125 -4.953125 1.703125 -4.734375 C 1.703125 -4.535156 1.765625 -4.375 1.890625 -4.25 C 2.015625 -4.132812 2.234375 -4.039062 2.546875 -3.96875 L 3.390625 -3.796875 C 4.015625 -3.660156 4.46875 -3.4375 4.75 -3.125 C 5.03125 -2.8125 5.171875 -2.398438 5.171875 -1.890625 C 5.171875 -1.492188 5.082031 -1.144531 4.90625 -0.84375 C 4.738281 -0.550781 4.476562 -0.320312 4.125 -0.15625 C 3.78125 0.0078125 3.351562 0.09375 2.84375 0.09375 Z M 2.84375 0.09375 "/></g></g><g transform="translate(194.935656, 217.111889)"><g/></g><g transform="translate(197.058214, 217.111889)"><g><path d="M 2.109375 -2.828125 L 2.109375 -1.0625 L 5.171875 -1.0625 L 5.171875 0 L 0.828125 0 L 0.828125 -6.421875 L 5.109375 -6.421875 L 5.109375 -5.359375 L 2.109375 -5.359375 L 2.109375 -3.859375 L 4.71875 -3.859375 L 4.71875 -2.828125 Z M 2.109375 -2.828125 "/></g></g><g transform="translate(202.58214, 217.111889)"><g/></g><g transform="translate(204.704698, 217.111889)"><g><path d="M 2.84375 0.09375 C 2.40625 0.09375 2.007812 0.0390625 1.65625 -0.0625 C 1.3125 -0.175781 1.019531 -0.320312 0.78125 -0.5 C 0.550781 -0.6875 0.378906 -0.882812 0.265625 -1.09375 L 0.953125 -1.953125 L 1.0625 -1.953125 C 1.257812 -1.660156 1.503906 -1.425781 1.796875 -1.25 C 2.097656 -1.082031 2.445312 -1 2.84375 -1 C 3.1875 -1 3.441406 -1.070312 3.609375 -1.21875 C 3.785156 -1.363281 3.875 -1.5625 3.875 -1.8125 C 3.875 -1.96875 3.84375 -2.09375 3.78125 -2.1875 C 3.726562 -2.289062 3.640625 -2.378906 3.515625 -2.453125 C 3.390625 -2.535156 3.21875 -2.601562 3 -2.65625 L 2.171875 -2.84375 C 1.585938 -2.96875 1.15625 -3.179688 0.875 -3.484375 C 0.59375 -3.796875 0.453125 -4.195312 0.453125 -4.6875 C 0.453125 -5.050781 0.539062 -5.367188 0.71875 -5.640625 C 0.90625 -5.921875 1.171875 -6.132812 1.515625 -6.28125 C 1.867188 -6.4375 2.285156 -6.515625 2.765625 -6.515625 C 3.253906 -6.515625 3.675781 -6.445312 4.03125 -6.3125 C 4.382812 -6.1875 4.6875 -5.988281 4.9375 -5.71875 L 4.296875 -4.859375 L 4.1875 -4.859375 C 4.007812 -5.046875 3.800781 -5.1875 3.5625 -5.28125 C 3.332031 -5.382812 3.066406 -5.4375 2.765625 -5.4375 C 2.410156 -5.4375 2.144531 -5.375 1.96875 -5.25 C 1.789062 -5.125 1.703125 -4.953125 1.703125 -4.734375 C 1.703125 -4.535156 1.765625 -4.375 1.890625 -4.25 C 2.015625 -4.132812 2.234375 -4.039062 2.546875 -3.96875 L 3.390625 -3.796875 C 4.015625 -3.660156 4.46875 -3.4375 4.75 -3.125 C 5.03125 -2.8125 5.171875 -2.398438 5.171875 -1.890625 C 5.171875 -1.492188 5.082031 -1.144531 4.90625 -0.84375 C 4.738281 -0.550781 4.476562 -0.320312 4.125 -0.15625 C 3.78125 0.0078125 3.351562 0.09375 2.84375 0.09375 Z M 2.84375 0.09375 "/></g></g><g transform="translate(210.224229, 217.111889)"><g><path d="M 2.109375 0 L 0.828125 0 L 0.828125 -6.421875 L 2.109375 -6.421875 Z M 2.109375 0 "/></g></g><g transform="translate(213.168565, 217.111889)"><g><path d="M 2.84375 0.09375 C 2.40625 0.09375 2.007812 0.0390625 1.65625 -0.0625 C 1.3125 -0.175781 1.019531 -0.320312 0.78125 -0.5 C 0.550781 -0.6875 0.378906 -0.882812 0.265625 -1.09375 L 0.953125 -1.953125 L 1.0625 -1.953125 C 1.257812 -1.660156 1.503906 -1.425781 1.796875 -1.25 C 2.097656 -1.082031 2.445312 -1 2.84375 -1 C 3.1875 -1 3.441406 -1.070312 3.609375 -1.21875 C 3.785156 -1.363281 3.875 -1.5625 3.875 -1.8125 C 3.875 -1.96875 3.84375 -2.09375 3.78125 -2.1875 C 3.726562 -2.289062 3.640625 -2.378906 3.515625 -2.453125 C 3.390625 -2.535156 3.21875 -2.601562 3 -2.65625 L 2.171875 -2.84375 C 1.585938 -2.96875 1.15625 -3.179688 0.875 -3.484375 C 0.59375 -3.796875 0.453125 -4.195312 0.453125 -4.6875 C 0.453125 -5.050781 0.539062 -5.367188 0.71875 -5.640625 C 0.90625 -5.921875 1.171875 -6.132812 1.515625 -6.28125 C 1.867188 -6.4375 2.285156 -6.515625 2.765625 -6.515625 C 3.253906 -6.515625 3.675781 -6.445312 4.03125 -6.3125 C 4.382812 -6.1875 4.6875 -5.988281 4.9375 -5.71875 L 4.296875 -4.859375 L 4.1875 -4.859375 C 4.007812 -5.046875 3.800781 -5.1875 3.5625 -5.28125 C 3.332031 -5.382812 3.066406 -5.4375 2.765625 -5.4375 C 2.410156 -5.4375 2.144531 -5.375 1.96875 -5.25 C 1.789062 -5.125 1.703125 -4.953125 1.703125 -4.734375 C 1.703125 -4.535156 1.765625 -4.375 1.890625 -4.25 C 2.015625 -4.132812 2.234375 -4.039062 2.546875 -3.96875 L 3.390625 -3.796875 C 4.015625 -3.660156 4.46875 -3.4375 4.75 -3.125 C 5.03125 -2.8125 5.171875 -2.398438 5.171875 -1.890625 C 5.171875 -1.492188 5.082031 -1.144531 4.90625 -0.84375 C 4.738281 -0.550781 4.476562 -0.320312 4.125 -0.15625 C 3.78125 0.0078125 3.351562 0.09375 2.84375 0.09375 Z M 2.84375 0.09375 "/></g></g><g transform="translate(218.688096, 217.111889)"><g><path d="M 5.15625 -6.421875 L 5.15625 -5.359375 L 3.296875 -5.359375 L 3.296875 0 L 2.03125 0 L 2.03125 -5.359375 L 0.171875 -5.359375 L 0.171875 -6.421875 Z M 5.15625 -6.421875 "/></g></g><g transform="translate(224.014267, 217.111889)"><g><path d="M 2.109375 -2.828125 L 2.109375 -1.0625 L 5.171875 -1.0625 L 5.171875 0 L 0.828125 0 L 0.828125 -6.421875 L 5.109375 -6.421875 L 5.109375 -5.359375 L 2.109375 -5.359375 L 2.109375 -3.859375 L 4.71875 -3.859375 L 4.71875 -2.828125 Z M 2.109375 -2.828125 "/></g></g><g transform="translate(229.538193, 217.111889)"><g><path d="M 2 0 L 0.828125 0 L 0.828125 -6.421875 L 2.5 -6.421875 L 4.125 -1.703125 L 4.21875 -1.703125 L 5.828125 -6.421875 L 7.453125 -6.421875 L 7.453125 0 L 6.25 0 L 6.25 -4.25 L 6.140625 -4.265625 L 4.65625 0 L 3.59375 0 L 2.109375 -4.265625 L 2 -4.25 Z M 2 0 "/></g></g><g transform="translate(237.830673, 217.111889)"><g><path d="M 6.171875 0 L 4.828125 0 L 4.34375 -1.484375 L 1.890625 -1.484375 L 1.40625 0 L 0.09375 0 L 2.3125 -6.421875 L 3.953125 -6.421875 Z M 3.046875 -5.078125 L 2.234375 -2.546875 L 4 -2.546875 L 3.171875 -5.078125 Z M 3.046875 -5.078125 "/></g></g><g transform="translate(244.092879, 217.111889)"><g><path d="M 2.84375 0.09375 C 2.40625 0.09375 2.007812 0.0390625 1.65625 -0.0625 C 1.3125 -0.175781 1.019531 -0.320312 0.78125 -0.5 C 0.550781 -0.6875 0.378906 -0.882812 0.265625 -1.09375 L 0.953125 -1.953125 L 1.0625 -1.953125 C 1.257812 -1.660156 1.503906 -1.425781 1.796875 -1.25 C 2.097656 -1.082031 2.445312 -1 2.84375 -1 C 3.1875 -1 3.441406 -1.070312 3.609375 -1.21875 C 3.785156 -1.363281 3.875 -1.5625 3.875 -1.8125 C 3.875 -1.96875 3.84375 -2.09375 3.78125 -2.1875 C 3.726562 -2.289062 3.640625 -2.378906 3.515625 -2.453125 C 3.390625 -2.535156 3.21875 -2.601562 3 -2.65625 L 2.171875 -2.84375 C 1.585938 -2.96875 1.15625 -3.179688 0.875 -3.484375 C 0.59375 -3.796875 0.453125 -4.195312 0.453125 -4.6875 C 0.453125 -5.050781 0.539062 -5.367188 0.71875 -5.640625 C 0.90625 -5.921875 1.171875 -6.132812 1.515625 -6.28125 C 1.867188 -6.4375 2.285156 -6.515625 2.765625 -6.515625 C 3.253906 -6.515625 3.675781 -6.445312 4.03125 -6.3125 C 4.382812 -6.1875 4.6875 -5.988281 4.9375 -5.71875 L 4.296875 -4.859375 L 4.1875 -4.859375 C 4.007812 -5.046875 3.800781 -5.1875 3.5625 -5.28125 C 3.332031 -5.382812 3.066406 -5.4375 2.765625 -5.4375 C 2.410156 -5.4375 2.144531 -5.375 1.96875 -5.25 C 1.789062 -5.125 1.703125 -4.953125 1.703125 -4.734375 C 1.703125 -4.535156 1.765625 -4.375 1.890625 -4.25 C 2.015625 -4.132812 2.234375 -4.039062 2.546875 -3.96875 L 3.390625 -3.796875 C 4.015625 -3.660156 4.46875 -3.4375 4.75 -3.125 C 5.03125 -2.8125 5.171875 -2.398438 5.171875 -1.890625 C 5.171875 -1.492188 5.082031 -1.144531 4.90625 -0.84375 C 4.738281 -0.550781 4.476562 -0.320312 4.125 -0.15625 C 3.78125 0.0078125 3.351562 0.09375 2.84375 0.09375 Z M 2.84375 0.09375 "/></g></g></g></svg>